Coordinates
version=1
nRows=43
nColumns=12
inDegrees=yes

Units are S.I. units (second, meters, Newtons, ...)
Angles are in degrees

endheader
time	SC_y	SC_z	SC_x	AC_y	AC_z	AC_x	GH_y	GH_z	GH_yy	EL_x	PS_y
       0.0              -11.29          24.28          81.89          69.16         -8.841          2.277         -93.65          14.47          61.89          124.2          29.75
 0.0009866              -11.29          24.27          81.88          69.16         -8.841          2.277         -93.63          14.47          61.86          124.2          29.75
  0.001973               -11.3          24.27          81.87          69.15         -8.841          2.277          -93.6          14.46          61.83          124.2          29.75
   0.00296              -11.31          24.26          81.85          69.15         -8.841          2.277         -93.57          14.46           61.8          124.1          29.75
  0.003946              -11.32          24.26          81.84          69.14         -8.841          2.277         -93.55          14.45          61.76          124.1          29.75
  0.004933              -11.32          24.25          81.83          69.13         -8.841          2.277         -93.52          14.45          61.72          124.1          29.75
   0.00592              -11.33          24.25          81.81          69.12         -8.841          2.277         -93.49          14.44          61.68          124.1          29.74
  0.006906              -11.34          24.24           81.8          69.12         -8.841          2.277         -93.45          14.44          61.64          124.1          29.74
  0.007893              -11.35          24.23          81.78          69.11         -8.842          2.277         -93.42          14.43          61.59          124.0          29.74
  0.008879              -11.36          24.23          81.76           69.1         -8.842          2.277         -93.38          14.43          61.54          124.0          29.74
  0.009866              -11.38          24.22          81.74          69.09         -8.842          2.277         -93.33          14.42          61.49          124.0          29.74
   0.01085              -11.39          24.21          81.72          69.08         -8.842          2.277         -93.29          14.41          61.43          123.9          29.74
   0.01184               -11.4           24.2           81.7          69.06         -8.842          2.277         -93.24           14.4          61.37          123.9          29.74
   0.01283              -11.42          24.19          81.68          69.05         -8.842          2.277         -93.19          14.39          61.31          123.9          29.74
   0.01381              -11.43          24.18          81.65          69.04         -8.842          2.277         -93.13          14.39          61.23          123.8          29.74
    0.0148              -11.45          24.17          81.62          69.02         -8.842          2.277         -93.07          14.38          61.15          123.8          29.74
   0.01579              -11.47          24.16          81.59          69.01         -8.842          2.277          -93.0          14.36          61.07          123.7          29.73
   0.01677              -11.49          24.14          81.56          68.99         -8.842          2.277         -92.93          14.35          60.98          123.7          29.73
   0.01776              -11.51          24.13          81.52          68.97         -8.842          2.277         -92.85          14.34          60.87          123.6          29.73
   0.01875              -11.54          24.11          81.48          68.95         -8.842          2.277         -92.76          14.32          60.76          123.6          29.73
   0.01973              -11.56           24.1          81.44          68.93         -8.842          2.278         -92.67          14.31          60.64          123.5          29.73
   0.02072              -11.59          24.08          81.39           68.9         -8.842          2.278         -92.56          14.29          60.51          123.4          29.73
   0.02171              -11.62          24.06          81.33          68.87         -8.842          2.278         -92.45          14.27          60.36          123.4          29.72
   0.02269              -11.66          24.03          81.28          68.84         -8.843          2.278         -92.32          14.25          60.19          123.3          29.72
   0.02368               -11.7          24.01          81.21          68.81         -8.843          2.278         -92.17          14.23          60.01          123.2          29.72
   0.02466              -11.75          23.98          81.14          68.77         -8.843          2.278         -92.01           14.2          59.81          123.1          29.71
   0.02565               -11.8          23.94          81.05          68.72         -8.843          2.278         -91.83          14.17          59.58          122.9          29.71
   0.02664              -11.85          23.91          80.96          68.68         -8.843          2.278         -91.63          14.14          59.32          122.8          29.71
   0.02762              -11.92          23.87          80.85          68.62         -8.843          2.278          -91.4           14.1          59.03          122.7           29.7
   0.02861              -11.99          23.82          80.74          68.56         -8.844          2.278         -91.15          14.06           58.7          122.5           29.7
    0.0296              -12.07          23.77           80.6          68.49         -8.844          2.278         -90.85          14.01          58.33          122.3          29.69
   0.03058              -12.17           23.7          80.44           68.4         -8.844          2.278         -90.51          13.95          57.89          122.0          29.68
   0.03157              -12.28          23.63          80.26          68.31         -8.845          2.278         -90.12          13.89          57.39          121.8          29.68
   0.03256               -12.4          23.55          80.05           68.2         -8.845          2.278         -89.67          13.81          56.82          121.5          29.67
   0.03354              -12.55          23.45          79.81          68.07         -8.846          2.278         -89.13          13.72          56.14          121.1          29.65
   0.03453              -12.73          23.34          79.52          67.92         -8.846          2.278         -88.51          13.62          55.34          120.7          29.64
   0.03552              -12.94           23.2          79.18          67.74         -8.847          2.278         -87.76          13.49          54.39          120.2          29.63
    0.0365              -13.19          23.04          78.77          67.52         -8.848          2.278         -86.87          13.35          53.25          119.5          29.61
   0.03749              -13.49          22.84          78.27          67.26         -8.849          2.278         -85.79          13.17          51.87          118.8          29.59
   0.03848              -13.86           22.6          77.66          66.94          -8.85          2.278         -84.47          12.95          50.19          117.9          29.56
   0.03946              -14.32           22.3          76.91          66.55         -8.852          2.278         -82.84          12.68          48.11          116.8          29.52
   0.04045              -14.89          21.93          75.97          66.06         -8.854          2.278         -80.81          12.34          45.52          115.4          29.48
   0.04144              -15.61          21.46          74.79          65.44         -8.856          2.278         -78.25          11.92          42.26          113.6          29.43
